<svg width="234" height="160" viewBox="0 0 234 160" fill="none" xmlns="http://www.w3.org/2000/svg">
<path d="M34.6769 120.399V118.41H40.5989V120.399H38.7719V130.011H40.5989V132H34.6769V130.011H36.5039V120.399H34.6769ZM42.4619 123.612L48.0869 130.011H49.9049V132H42.0119V130.011H45.2429L40.9769 125.07L42.4619 123.612ZM37.6109 126.528L44.5499 120.399H41.9399V118.41H49.1219V120.399H47.4299L38.3669 128.202L37.6109 126.528Z" fill="white"/>
<path d="M56.0109 130.155H57.6039V132H52.1139V130.155H53.8149V124.071H52.1139V122.226H56.0109V130.155ZM53.5629 117.933H56.1099V120.327H53.5629V117.933Z" fill="white"/>
<path d="M72.9832 132V130.155H74.3692V125.88C74.3692 125.25 74.2252 124.758 73.9372 124.404C73.6492 124.044 73.2142 123.864 72.6322 123.864C72.1702 123.864 71.7532 123.99 71.3812 124.242C71.0092 124.494 70.7122 124.863 70.4902 125.349C70.2742 125.835 70.1662 126.426 70.1662 127.122L69.7342 125.07H70.2472C70.3852 124.044 70.7452 123.276 71.3272 122.766C71.9152 122.25 72.6532 121.992 73.5412 121.992C74.5492 121.992 75.3052 122.289 75.8092 122.883C76.3132 123.477 76.5652 124.314 76.5652 125.394V130.155H78.1492V132H72.9832ZM59.9242 132V130.155H61.5622V124.071H59.9242V122.226H63.7582V130.155H65.1622V132H59.9242ZM66.5842 132V130.155H67.9702V125.88C67.9702 125.25 67.8262 124.758 67.5382 124.404C67.2502 124.044 66.8122 123.864 66.2242 123.864C65.7682 123.864 65.3512 123.99 64.9732 124.242C64.6012 124.494 64.3042 124.863 64.0822 125.349C63.8662 125.835 63.7582 126.426 63.7582 127.122L63.3352 125.07H63.8482C63.9862 124.044 64.3462 123.276 64.9282 122.766C65.5102 122.25 66.2482 121.992 67.1422 121.992C68.1442 121.992 68.8972 122.289 69.4012 122.883C69.9112 123.477 70.1662 124.314 70.1662 125.394V130.155H71.7502V132H66.5842Z" fill="white"/>
<path d="M96.9077 125.907V127.752H89.5547V125.907H96.9077ZM99.1847 130.011H100.328V132H94.3517V130.011H96.7637L92.8307 119.805L94.0547 120.885H92.2907L93.4697 119.805L89.5367 130.011H91.9847V132H86.1527V130.011H87.3047L91.9037 118.41H94.5947L99.1847 130.011Z" fill="white"/>
<path d="M115.475 132V130.155H116.861V125.88C116.861 125.25 116.717 124.758 116.429 124.404C116.141 124.044 115.706 123.864 115.124 123.864C114.662 123.864 114.245 123.99 113.873 124.242C113.501 124.494 113.204 124.863 112.982 125.349C112.766 125.835 112.658 126.426 112.658 127.122L112.226 125.07H112.739C112.877 124.044 113.237 123.276 113.819 122.766C114.407 122.25 115.145 121.992 116.033 121.992C117.041 121.992 117.797 122.289 118.301 122.883C118.805 123.477 119.057 124.314 119.057 125.394V130.155H120.641V132H115.475ZM102.416 132V130.155H104.054V124.071H102.416V122.226H106.25V130.155H107.654V132H102.416ZM109.076 132V130.155H110.462V125.88C110.462 125.25 110.318 124.758 110.03 124.404C109.742 124.044 109.304 123.864 108.716 123.864C108.26 123.864 107.843 123.99 107.465 124.242C107.093 124.494 106.796 124.863 106.574 125.349C106.358 125.835 106.25 126.426 106.25 127.122L105.827 125.07H106.34C106.478 124.044 106.838 123.276 107.42 122.766C108.002 122.25 108.74 121.992 109.634 121.992C110.636 121.992 111.389 122.289 111.893 122.883C112.403 123.477 112.658 124.314 112.658 125.394V130.155H114.242V132H109.076Z" fill="white"/>
<path d="M122.678 135.78V133.935H124.316V124.071H122.678V122.226H126.512V125.574L126.458 126.816V127.311L126.512 128.49V133.935H128.096V135.78H122.678ZM129.752 132.198C129.014 132.198 128.342 132.042 127.736 131.73C127.136 131.412 126.62 130.941 126.188 130.317C125.762 129.693 125.444 128.925 125.234 128.013L126.458 127.149C126.458 127.761 126.569 128.301 126.791 128.769C127.013 129.231 127.334 129.597 127.754 129.867C128.18 130.131 128.696 130.263 129.302 130.263C129.896 130.263 130.403 130.131 130.823 129.867C131.249 129.597 131.576 129.228 131.804 128.76C132.032 128.286 132.146 127.737 132.146 127.113C132.146 126.489 132.026 125.943 131.786 125.475C131.552 125.001 131.222 124.632 130.796 124.368C130.37 124.104 129.872 123.972 129.302 123.972C128.708 123.972 128.198 124.104 127.772 124.368C127.352 124.632 127.028 125.004 126.8 125.484C126.572 125.958 126.458 126.513 126.458 127.149L126.179 124.908H126.602C126.716 124.314 126.914 123.804 127.196 123.378C127.478 122.946 127.844 122.613 128.294 122.379C128.744 122.145 129.284 122.028 129.914 122.028C130.586 122.028 131.195 122.157 131.741 122.415C132.293 122.667 132.767 123.024 133.163 123.486C133.559 123.948 133.865 124.488 134.081 125.106C134.297 125.724 134.405 126.393 134.405 127.113C134.405 128.127 134.213 129.018 133.829 129.786C133.451 130.548 132.911 131.142 132.209 131.568C131.513 131.988 130.694 132.198 129.752 132.198Z" fill="white"/>
<path d="M140.574 130.155H142.257V132H136.677V130.155H138.378V119.625H136.677V117.78H140.574V130.155Z" fill="white"/>
<path d="M148.561 130.155H150.154V132H144.664V130.155H146.365V124.071H144.664V122.226H148.561V130.155ZM146.113 117.933H148.66V120.327H146.113V117.933Z" fill="white"/>
<path d="M152.474 132V130.155H154.229V124.071H152.474V122.226H154.229V121.812C154.229 120.528 154.577 119.505 155.273 118.743C155.969 117.975 157.001 117.591 158.369 117.591C159.251 117.591 159.95 117.78 160.466 118.158C160.988 118.53 161.333 119.139 161.501 119.985H162.824L161.582 120.723C161.372 120.255 161.042 119.919 160.592 119.715C160.142 119.511 159.611 119.409 158.999 119.409C158.153 119.409 157.511 119.58 157.073 119.922C156.641 120.264 156.425 120.852 156.425 121.686V122.226H158.954V124.071H156.425V130.155H158.414V132H152.474ZM161.582 120.723V117.78H163.796V120.723H161.582ZM163.886 130.155H165.47V132H159.98V130.155H161.69V124.071H159.98V122.226H163.886V130.155Z" fill="white"/>
<path d="M172.995 132.189C171.939 132.189 171.027 131.976 170.259 131.55C169.497 131.118 168.909 130.524 168.495 129.768C168.081 129.012 167.874 128.139 167.874 127.149C167.874 126.147 168.081 125.262 168.495 124.494C168.915 123.726 169.5 123.126 170.25 122.694C171.006 122.256 171.891 122.037 172.905 122.037C173.931 122.037 174.813 122.253 175.551 122.685C176.289 123.117 176.856 123.717 177.252 124.485C177.654 125.253 177.855 126.141 177.855 127.149C177.855 127.317 177.852 127.455 177.846 127.563C177.846 127.665 177.84 127.752 177.828 127.824H175.659C175.671 127.71 175.68 127.59 175.686 127.464C175.692 127.338 175.695 127.191 175.695 127.023C175.695 126.423 175.587 125.892 175.371 125.43C175.155 124.968 174.84 124.605 174.426 124.341C174.012 124.077 173.511 123.945 172.923 123.945C172.365 123.945 171.873 124.08 171.447 124.35C171.027 124.614 170.7 124.989 170.466 125.475C170.232 125.955 170.115 126.513 170.115 127.149C170.115 127.749 170.229 128.28 170.457 128.742C170.691 129.204 171.021 129.567 171.447 129.831C171.879 130.089 172.395 130.218 172.995 130.218C173.613 130.218 174.144 130.077 174.588 129.795C175.032 129.507 175.359 129.123 175.569 128.643L177.675 129.336C177.315 130.218 176.724 130.914 175.902 131.424C175.08 131.934 174.111 132.189 172.995 132.189ZM169.269 127.824V126.285H176.82L177.243 127.824H169.269Z" fill="white"/>
<path d="M184.442 130.155H186.053V132H180.545V130.155H182.246V124.071H180.545V122.226H184.442V130.155ZM187.889 124.467C187.769 124.437 187.643 124.413 187.511 124.395C187.379 124.377 187.244 124.368 187.106 124.368C186.284 124.368 185.633 124.638 185.153 125.178C184.679 125.712 184.442 126.462 184.442 127.428L184.019 125.151H184.523C184.601 124.467 184.76 123.9 185 123.45C185.24 122.994 185.555 122.652 185.945 122.424C186.341 122.196 186.803 122.082 187.331 122.082C187.427 122.082 187.52 122.088 187.61 122.1C187.7 122.106 187.793 122.118 187.889 122.136V124.467Z" fill="white"/>
<path d="M195.585 132.18C194.985 132.18 194.478 132.093 194.064 131.919C193.65 131.745 193.323 131.499 193.083 131.181C192.843 130.863 192.69 130.488 192.624 130.056H192.21L192.552 128.895C192.648 129.357 192.921 129.735 193.371 130.029C193.821 130.323 194.373 130.47 195.027 130.47C195.561 130.47 195.963 130.371 196.233 130.173C196.503 129.969 196.638 129.672 196.638 129.282C196.638 128.91 196.485 128.625 196.179 128.427C195.873 128.223 195.315 128.064 194.505 127.95C193.029 127.74 191.97 127.368 191.328 126.834C190.692 126.3 190.374 125.613 190.374 124.773C190.374 123.957 190.647 123.3 191.193 122.802C191.745 122.298 192.519 122.046 193.515 122.046C194.079 122.046 194.547 122.133 194.919 122.307C195.291 122.475 195.579 122.721 195.783 123.045C195.987 123.363 196.116 123.744 196.17 124.188H196.584L196.26 125.304C196.164 124.842 195.906 124.464 195.486 124.17C195.072 123.876 194.577 123.729 194.001 123.729C193.533 123.729 193.179 123.825 192.939 124.017C192.699 124.209 192.579 124.449 192.579 124.737C192.579 125.091 192.768 125.37 193.146 125.574C193.53 125.772 194.124 125.931 194.928 126.051C196.338 126.255 197.343 126.618 197.943 127.14C198.543 127.656 198.843 128.364 198.843 129.264C198.843 130.176 198.57 130.89 198.024 131.406C197.478 131.922 196.665 132.18 195.585 132.18ZM190.356 132V128.895H192.552V132H190.356ZM196.26 125.304V122.217H198.456V125.304H196.26Z" fill="white"/>
<path d="M5.32209 159L2.66559 151.647L3.44659 150.728L6.02609 157.95H5.75109L8.34159 150.728L9.04009 151.647L6.37809 159H5.32209ZM0.40509 159V158.021H1.63159V151.707H0.40509V150.728H3.44659L3.30909 151.707H2.64359V158.021H3.93609V159H0.40509ZM7.73109 159V158.021H9.06209V151.707H8.31409L8.34159 150.728H11.3666V151.707H10.1401V158.021H11.3666V159H7.73109Z" fill="white" fill-opacity="0.6"/>
<path d="M23.9832 159C23.7889 159 23.6404 158.94 23.5377 158.819C23.4351 158.694 23.3837 158.518 23.3837 158.291V156.8L23.4772 156.591L23.4222 155.909L23.3837 155.513V155.079C23.3837 154.829 23.3306 154.62 23.2242 154.452C23.1216 154.283 22.9676 154.156 22.7622 154.072C22.5569 153.984 22.3057 153.94 22.0087 153.94C21.5797 153.94 21.2424 154.028 20.9967 154.204C20.7511 154.376 20.5934 154.637 20.5237 154.985L19.5337 154.782C19.5997 154.382 19.7354 154.05 19.9407 153.786C20.1497 153.518 20.4284 153.319 20.7767 153.187C21.1287 153.055 21.5522 152.989 22.0472 152.989C22.5752 152.989 23.0134 153.064 23.3617 153.214C23.7137 153.364 23.9777 153.59 24.1537 153.891C24.3297 154.188 24.4177 154.563 24.4177 155.018V158.115H25.2482V159H23.9832ZM21.2662 159.077C20.6502 159.077 20.1809 158.938 19.8582 158.659C19.5356 158.377 19.3742 157.966 19.3742 157.427C19.3742 156.943 19.5117 156.571 19.7867 156.311C20.0617 156.047 20.5164 155.849 21.1507 155.717L23.6862 155.194V155.92L21.3212 156.454C21.0242 156.523 20.8042 156.631 20.6612 156.778C20.5182 156.921 20.4467 157.115 20.4467 157.361C20.4467 157.636 20.5311 157.843 20.6997 157.983C20.8684 158.122 21.1141 158.192 21.4367 158.192C21.8291 158.192 22.1737 158.098 22.4707 157.911C22.7714 157.72 23.0042 157.455 23.1692 157.114C23.3379 156.773 23.4222 156.371 23.4222 155.909L23.6972 157.207H23.3397C23.2554 157.823 23.0391 158.289 22.6907 158.604C22.3424 158.919 21.8676 159.077 21.2662 159.077Z" fill="white" fill-opacity="0.6"/>
<path d="M38.2285 159V156.877L38.2615 156.366V155.607L38.2285 154.666V151.196H36.738V150.31H39.2625V158.115H40.3185V159H38.2285ZM36.21 152.989C36.672 152.989 37.0863 153.088 37.453 153.286C37.8233 153.484 38.1332 153.771 38.3825 154.149C38.6355 154.527 38.8152 154.987 38.9215 155.53L38.2615 156.036C38.2615 155.621 38.1845 155.255 38.0305 154.936C37.8802 154.617 37.6602 154.367 37.3705 154.188C37.0845 154.008 36.7362 153.918 36.3255 153.918C35.9258 153.918 35.5812 154.01 35.2915 154.193C35.0018 154.373 34.78 154.624 34.626 154.947C34.472 155.266 34.395 155.636 34.395 156.058C34.395 156.476 34.4757 156.846 34.637 157.169C34.7983 157.488 35.0238 157.739 35.3135 157.922C35.6032 158.102 35.9405 158.192 36.3255 158.192C36.7288 158.192 37.0735 158.102 37.3595 157.922C37.6492 157.739 37.871 157.486 38.025 157.163C38.1827 156.837 38.2615 156.461 38.2615 156.036L38.4265 157.4H38.1845C38.1112 157.737 37.9865 158.036 37.8105 158.296C37.6345 158.553 37.4035 158.754 37.1175 158.901C36.8315 159.048 36.4905 159.121 36.0945 159.121C35.6912 159.121 35.3208 159.046 34.9835 158.896C34.6462 158.745 34.3528 158.533 34.1035 158.258C33.8578 157.983 33.6672 157.658 33.5315 157.284C33.3958 156.91 33.328 156.501 33.328 156.058C33.328 155.456 33.4453 154.925 33.68 154.463C33.9183 154.001 34.252 153.639 34.681 153.379C35.1137 153.119 35.6233 152.989 36.21 152.989Z" fill="white" fill-opacity="0.6"/>
<path d="M51.3396 159.11C50.7199 159.11 50.1846 158.982 49.7336 158.725C49.2826 158.465 48.9361 158.107 48.6941 157.653C48.4521 157.194 48.3311 156.668 48.3311 156.074C48.3311 155.476 48.4539 154.947 48.6996 154.485C48.9452 154.019 49.2899 153.656 49.7336 153.396C50.1772 153.132 50.6942 153 51.2846 153C51.8822 153 52.3974 153.13 52.8301 153.39C53.2664 153.65 53.6001 154.012 53.8311 154.474C54.0657 154.936 54.1831 155.469 54.1831 156.074C54.1831 156.162 54.1812 156.232 54.1776 156.283C54.1739 156.331 54.1684 156.371 54.1611 156.404H53.1381C53.1454 156.349 53.1509 156.29 53.1546 156.228C53.1582 156.162 53.1601 156.085 53.1601 155.997C53.1601 155.597 53.0849 155.244 52.9346 154.936C52.7879 154.624 52.5752 154.378 52.2966 154.199C52.0179 154.019 51.6806 153.929 51.2846 153.929C50.9032 153.929 50.5696 154.021 50.2836 154.204C49.9976 154.384 49.7739 154.635 49.6126 154.958C49.4549 155.28 49.3761 155.652 49.3761 156.074C49.3761 156.481 49.4531 156.842 49.6071 157.158C49.7647 157.469 49.9884 157.715 50.2781 157.895C50.5714 158.071 50.9216 158.159 51.3286 158.159C51.7502 158.159 52.1114 158.061 52.4121 157.867C52.7164 157.669 52.9401 157.4 53.0831 157.059L54.0621 157.427C53.8494 157.948 53.5029 158.358 53.0226 158.659C52.5422 158.96 51.9812 159.11 51.3396 159.11ZM48.9856 156.404V155.618H53.8531L54.1611 156.404H48.9856Z" fill="white" fill-opacity="0.6"/>
<path d="M72.6248 151.707V150.728H76.1558V151.707H74.9293V158.021H76.1558V159H72.6248V158.021H73.8513V151.707H72.6248Z" fill="white" fill-opacity="0.6"/>
<path d="M86.362 158.115H87.308V159H84.195V158.115H85.328V153.995H84.195V153.11H86.362V158.115ZM89.3485 158.115V155.26C89.3485 154.831 89.2495 154.494 89.0515 154.248C88.8572 153.999 88.5565 153.874 88.1495 153.874C87.8122 153.874 87.5079 153.96 87.2365 154.133C86.9689 154.305 86.7562 154.552 86.5985 154.875C86.4409 155.194 86.362 155.579 86.362 156.03L86.131 154.853H86.406C86.4683 154.446 86.593 154.105 86.78 153.83C86.967 153.555 87.2054 153.348 87.495 153.209C87.7884 153.069 88.1202 153 88.4905 153C89.1065 153 89.5758 153.183 89.8985 153.55C90.2212 153.916 90.3825 154.441 90.3825 155.123V158.115H91.444V159H88.419V158.115H89.3485Z" fill="white" fill-opacity="0.6"/>
<path d="M113.943 159.132C113.334 159.132 112.773 159.028 112.26 158.819C111.75 158.606 111.309 158.309 110.935 157.928C110.564 157.543 110.276 157.088 110.071 156.564C109.869 156.039 109.769 155.465 109.769 154.842C109.769 154.219 109.869 153.649 110.071 153.132C110.273 152.615 110.559 152.169 110.929 151.795C111.299 151.417 111.738 151.126 112.244 150.921C112.75 150.712 113.305 150.607 113.91 150.607C114.482 150.607 114.972 150.702 115.379 150.893C115.789 151.08 116.117 151.353 116.363 151.713C116.612 152.068 116.779 152.499 116.864 153.005H117.194L116.908 153.973C116.746 153.265 116.402 152.704 115.874 152.29C115.346 151.872 114.702 151.663 113.943 151.663C113.345 151.663 112.819 151.797 112.365 152.065C111.91 152.332 111.554 152.706 111.298 153.187C111.045 153.663 110.918 154.215 110.918 154.842C110.918 155.319 110.991 155.755 111.138 156.151C111.285 156.547 111.492 156.89 111.76 157.18C112.027 157.466 112.346 157.687 112.717 157.845C113.087 157.999 113.496 158.076 113.943 158.076C114.445 158.076 114.898 157.979 115.302 157.785C115.705 157.59 116.04 157.315 116.308 156.96C116.579 156.604 116.766 156.188 116.869 155.711L117.975 155.942C117.839 156.587 117.584 157.148 117.21 157.625C116.84 158.102 116.376 158.472 115.819 158.736C115.265 159 114.64 159.132 113.943 159.132ZM116.908 153.973V150.728H117.98V153.973H116.908Z" fill="white" fill-opacity="0.6"/>
<path d="M130.855 159C130.661 159 130.512 158.94 130.41 158.819C130.307 158.694 130.256 158.518 130.256 158.291V156.8L130.349 156.591L130.294 155.909L130.256 155.513V155.079C130.256 154.829 130.202 154.62 130.096 154.452C129.993 154.283 129.839 154.156 129.634 154.072C129.429 153.984 129.178 153.94 128.881 153.94C128.452 153.94 128.114 154.028 127.869 154.204C127.623 154.376 127.465 154.637 127.396 154.985L126.406 154.782C126.472 154.382 126.607 154.05 126.813 153.786C127.022 153.518 127.3 153.319 127.649 153.187C128.001 153.055 128.424 152.989 128.919 152.989C129.447 152.989 129.885 153.064 130.234 153.214C130.586 153.364 130.85 153.59 131.026 153.891C131.202 154.188 131.29 154.563 131.29 155.018V158.115H132.12V159H130.855ZM128.138 159.077C127.522 159.077 127.053 158.938 126.73 158.659C126.407 158.377 126.246 157.966 126.246 157.427C126.246 156.943 126.384 156.571 126.659 156.311C126.934 156.047 127.388 155.849 128.023 155.717L130.558 155.194V155.92L128.193 156.454C127.896 156.523 127.676 156.631 127.533 156.778C127.39 156.921 127.319 157.115 127.319 157.361C127.319 157.636 127.403 157.843 127.572 157.983C127.74 158.122 127.986 158.192 128.309 158.192C128.701 158.192 129.046 158.098 129.343 157.911C129.643 157.72 129.876 157.455 130.041 157.114C130.21 156.773 130.294 156.371 130.294 155.909L130.569 157.207H130.212C130.127 157.823 129.911 158.289 129.563 158.604C129.214 158.919 128.739 159.077 128.138 159.077Z" fill="white" fill-opacity="0.6"/>
<path d="M142.195 158.115H143.328V159H140.028V158.115H141.161V151.196H140.028V150.31H142.195V158.115Z" fill="white" fill-opacity="0.6"/>
<path d="M153.534 158.115H154.601V159H151.373V158.115H152.5V153.995H151.373V153.11H153.534V158.115ZM152.341 150.459H153.606V151.773H152.341V150.459Z" fill="white" fill-opacity="0.6"/>
<path d="M162.576 159V158.115H163.704V153.995H162.576V153.11H163.704V152.318C163.704 151.661 163.865 151.144 164.188 150.767C164.511 150.389 165.017 150.2 165.706 150.2C166.252 150.2 166.674 150.317 166.971 150.552C167.272 150.787 167.471 151.128 167.57 151.575L166.641 151.861C166.586 151.623 166.48 151.443 166.322 151.322C166.168 151.201 165.966 151.141 165.717 151.141C165.402 151.141 165.16 151.238 164.991 151.432C164.822 151.623 164.738 151.918 164.738 152.318V153.11H166.602V153.995H164.738V158.115H166.08V159H162.576Z" fill="white" fill-opacity="0.6"/>
<path d="M177.669 159.11C177.053 159.11 176.512 158.982 176.047 158.725C175.585 158.465 175.224 158.107 174.963 157.653C174.703 157.194 174.573 156.668 174.573 156.074C174.573 155.476 174.703 154.947 174.963 154.485C175.224 154.019 175.585 153.656 176.047 153.396C176.512 153.132 177.053 153 177.669 153C178.285 153 178.824 153.132 179.286 153.396C179.752 153.656 180.115 154.019 180.375 154.485C180.636 154.947 180.766 155.476 180.766 156.074C180.766 156.668 180.636 157.194 180.375 157.653C180.115 158.107 179.752 158.465 179.286 158.725C178.824 158.982 178.285 159.11 177.669 159.11ZM177.669 158.159C178.065 158.159 178.414 158.072 178.714 157.9C179.019 157.728 179.257 157.486 179.429 157.174C179.602 156.862 179.688 156.496 179.688 156.074C179.688 155.656 179.602 155.288 179.429 154.969C179.257 154.65 179.019 154.4 178.714 154.221C178.414 154.041 178.065 153.951 177.669 153.951C177.273 153.951 176.923 154.041 176.619 154.221C176.318 154.4 176.082 154.65 175.909 154.969C175.737 155.288 175.651 155.656 175.651 156.074C175.651 156.496 175.737 156.862 175.909 157.174C176.082 157.486 176.318 157.728 176.619 157.9C176.923 158.072 177.273 158.159 177.669 158.159Z" fill="white" fill-opacity="0.6"/>
<path d="M191.204 158.115H192.287V159H189.037V158.115H190.17V153.995H189.037V153.11H191.204V158.115ZM193.349 154.226C193.272 154.204 193.191 154.188 193.107 154.177C193.026 154.166 192.943 154.16 192.859 154.16C192.357 154.16 191.955 154.34 191.655 154.699C191.354 155.058 191.204 155.559 191.204 156.201L190.973 154.886H191.248C191.295 154.475 191.396 154.133 191.55 153.858C191.704 153.579 191.904 153.37 192.15 153.231C192.395 153.091 192.678 153.022 192.997 153.022C193.059 153.022 193.118 153.025 193.173 153.033C193.231 153.036 193.29 153.044 193.349 153.055V154.226Z" fill="white" fill-opacity="0.6"/>
<path d="M203.413 158.115H204.359V159H201.246V158.115H202.379V153.995H201.246V153.11H203.413V158.115ZM206.4 158.115V155.26C206.4 154.831 206.301 154.494 206.103 154.248C205.908 153.999 205.608 153.874 205.201 153.874C204.863 153.874 204.559 153.96 204.288 154.133C204.02 154.305 203.807 154.552 203.65 154.875C203.492 155.194 203.413 155.579 203.413 156.03L203.182 154.853H203.457C203.52 154.446 203.644 154.105 203.831 153.83C204.018 153.555 204.257 153.348 204.546 153.209C204.84 153.069 205.171 153 205.542 153C206.158 153 206.627 153.183 206.95 153.55C207.272 153.916 207.434 154.441 207.434 155.123V158.115H208.495V159H205.47V158.115H206.4Z" fill="white" fill-opacity="0.6"/>
<path d="M218.632 158.115H219.699V159H216.47V158.115H217.598V153.995H216.47V153.11H218.632V158.115ZM217.438 150.459H218.703V151.773H217.438V150.459Z" fill="white" fill-opacity="0.6"/>
<path d="M232.259 159C232.065 159 231.916 158.94 231.814 158.819C231.711 158.694 231.66 158.518 231.66 158.291V156.8L231.753 156.591L231.698 155.909L231.66 155.513V155.079C231.66 154.829 231.607 154.62 231.5 154.452C231.398 154.283 231.244 154.156 231.038 154.072C230.833 153.984 230.582 153.94 230.285 153.94C229.856 153.94 229.518 154.028 229.273 154.204C229.027 154.376 228.869 154.637 228.8 154.985L227.81 154.782C227.876 154.382 228.011 154.05 228.217 153.786C228.426 153.518 228.704 153.319 229.053 153.187C229.405 153.055 229.828 152.989 230.323 152.989C230.851 152.989 231.289 153.064 231.638 153.214C231.99 153.364 232.254 153.59 232.43 153.891C232.606 154.188 232.694 154.563 232.694 155.018V158.115H233.524V159H232.259ZM229.542 159.077C228.926 159.077 228.457 158.938 228.134 158.659C227.812 158.377 227.65 157.966 227.65 157.427C227.65 156.943 227.788 156.571 228.063 156.311C228.338 156.047 228.792 155.849 229.427 155.717L231.962 155.194V155.92L229.597 156.454C229.3 156.523 229.08 156.631 228.937 156.778C228.794 156.921 228.723 157.115 228.723 157.361C228.723 157.636 228.807 157.843 228.976 157.983C229.144 158.122 229.39 158.192 229.713 158.192C230.105 158.192 230.45 158.098 230.747 157.911C231.047 157.72 231.28 157.455 231.445 157.114C231.614 156.773 231.698 156.371 231.698 155.909L231.973 157.207H231.616C231.531 157.823 231.315 158.289 230.967 158.604C230.618 158.919 230.144 159.077 229.542 159.077Z" fill="white" fill-opacity="0.6"/>
<g clip-path="url(#clip0_42_60)">
<path d="M30.978 5.76865e-08C31.2628 0.360506 31.6988 0.540759 32.0475 0.825675C33.1345 1.71531 33.7913 2.79101 33.896 4.1807C33.9309 4.60517 34.1808 4.94242 34.2157 5.37851C34.268 6.09953 33.9425 6.7275 33.8437 7.40781C33.6518 8.78006 33.367 10.1407 33.1578 11.5129C32.9834 12.6351 33.2101 13.8271 32.6753 14.897C32.6637 14.9145 32.6579 14.9435 32.6637 14.9668C32.8381 16.2228 32.2742 17.3915 32.1812 18.63C32.0999 19.6708 32.1522 20.7872 31.7278 21.8048C31.6755 21.9269 31.6581 22.0839 31.6755 22.2176C31.8267 23.2759 31.5418 24.3283 31.2919 25.2819C30.8966 26.7937 30.8327 28.3404 30.4897 29.8522C30.3095 30.6314 30.1933 31.4745 30.1061 32.2943C30.0363 32.9921 29.7806 33.6608 29.6527 34.3527C29.4609 35.3819 29.3911 36.4344 29.1354 37.4519C28.9784 38.0857 28.7924 38.7079 28.6936 39.3649C28.5367 40.4232 28.2344 41.464 28.1414 42.5339C28.1298 42.6618 28.0658 42.7897 28.0135 42.9816C29.1586 42.7548 30.1119 42.1443 31.164 41.8129C32.5997 41.3535 33.989 40.743 35.3782 40.1731C36.2443 39.8184 37.1685 39.5219 38.0114 39.0451C38.8193 38.5916 39.7435 38.3008 40.6503 38.0799C41.4641 37.8822 42.1035 37.3356 42.9347 37.1786C44.3065 36.9228 45.5446 36.2134 46.8292 35.7075C48.6137 35.0098 50.4273 34.3934 52.2234 33.7247C53.5545 33.2305 54.8391 32.5734 56.2574 32.2536C57.1991 32.0443 58.0651 31.521 59.0126 31.2361C60.4483 30.8 61.8957 30.3464 63.2675 29.7475C64.8602 29.0556 66.5342 28.6021 68.1502 27.9683C69.5452 27.4217 70.9809 26.9275 72.4457 26.5553C73.4978 26.2879 74.4918 25.782 75.5497 25.4912C76.8459 25.1307 78.0782 24.6074 79.4035 24.2993C80.5661 24.026 81.746 23.6887 82.8679 23.2468C83.4259 23.0259 83.9956 23.1014 84.5594 22.9735C85.4371 22.7758 86.3671 22.363 87.2158 22.4793C88.9945 22.7235 90.7964 23.177 91.9996 24.6946C93.2494 26.2646 93.4121 28.0497 92.9529 29.9685C92.8134 30.5441 92.6623 31.1198 92.4414 31.6547C92.174 32.3002 91.8253 32.8991 91.2149 33.341C90.3895 33.9399 89.5292 34.2946 88.4946 34.3062C87.0007 34.3236 85.937 33.591 85.129 32.4513C84.8675 32.085 84.5768 31.9687 84.2629 32.0966C82.9725 32.6141 81.6065 32.8991 80.351 33.5387C79.4617 33.9922 78.4793 34.2946 77.5086 34.5504C77.061 34.6667 76.6599 34.8877 76.2298 35.0388C74.8696 35.5098 73.5618 36.1494 72.2132 36.6553C70.8705 37.1612 69.5336 37.6845 68.156 38.109C67.2027 38.3997 66.2959 38.8532 65.3194 39.1381C63.5233 39.6615 61.8492 40.5278 60.0415 41.0453C59.1579 41.3012 58.2918 41.7024 57.4083 42.0222C55.7749 42.6153 54.1125 43.1328 52.5198 43.8247C50.7353 44.6039 48.8578 45.1272 47.0559 45.8656C45.8585 46.3541 44.6378 46.8134 43.4172 47.2612C41.3362 48.0287 39.2785 48.8718 37.2208 49.7091C35.169 50.5464 33.088 51.3023 31.0826 52.2733C29.6062 52.9885 28.0193 53.5002 26.5371 54.2329C25.8105 54.5934 25.1653 54.919 25.2002 55.9889C25.2176 56.5355 25.0432 57.1983 24.7933 57.774C24.4039 58.6869 24.7119 59.2625 25.6361 59.5242C26.0314 59.6346 26.3685 59.9312 26.7406 60.0824C28.1937 60.6638 29.6062 61.3732 31.1524 61.7221C31.2861 61.7512 31.443 61.757 31.5535 61.8209C32.8904 62.6234 34.4947 62.6466 35.8839 63.2804C37.0232 63.8037 38.2787 63.9782 39.4122 64.548C40.0225 64.8562 40.7549 65.0829 41.4408 65.1411C42.4348 65.2341 43.2544 65.7632 44.2019 65.9609C45.1145 66.1528 46.0212 66.4261 46.899 66.7517C47.8406 67.1006 48.8172 67.3739 49.7821 67.589C51.148 67.8914 52.3803 68.5717 53.787 68.7403C54.6705 68.845 55.5134 69.2811 56.3853 69.5311C56.9549 69.6939 57.5362 69.8509 58.1233 69.9265C58.7569 70.0021 59.3149 70.2405 59.8787 70.4963C60.3612 70.7115 60.9017 70.7522 61.4016 70.851C62.5467 71.072 63.6163 71.5139 64.7323 71.793C65.7495 72.043 66.7667 72.3279 67.813 72.4791C68.3943 72.5663 68.9465 72.8047 69.522 72.9443C70.6554 73.2234 71.8238 73.3746 72.9224 73.7525C73.9628 74.113 75.0324 74.334 76.0903 74.5549C76.8634 74.7177 77.5551 75.2352 78.3979 75.0899C78.7176 75.0317 78.9618 75.2818 79.2466 75.369C80.2173 75.6655 81.2636 75.6423 82.1936 75.9969C83.2283 76.3982 84.3036 76.59 85.3615 76.811C86.4543 77.0436 87.5297 77.3692 88.605 77.6483C89.6281 77.9158 90.6743 78.0902 91.6916 78.4565C92.61 78.788 93.6388 78.9275 94.6212 79.1485C95.3303 79.3055 96.0627 79.3636 96.7312 79.7241C97.4112 80.0904 98.1901 79.6485 98.3936 78.8345C98.597 78.0379 98.7017 77.1948 99.0272 76.4563C99.6608 75.0317 99.9281 73.4909 100.527 72.0488C100.905 71.1301 101.219 70.1591 101.538 69.2055C102.154 67.403 102.864 65.5714 104.299 64.2805C105.735 62.9897 107.415 62.2745 109.496 62.9141C112.763 63.9142 113.286 67.8274 111.228 69.816C110.356 70.6591 109.903 71.6476 109.589 72.7757C109.246 74.0025 108.822 75.212 108.444 76.433C108.281 76.9564 108.293 77.5204 108.054 78.0321C107.572 79.0671 107.514 80.23 107.136 81.2999C106.903 81.9511 107.223 82.4861 107.961 82.5907C108.717 82.6954 109.403 83.0094 110.118 83.2187C110.879 83.4396 111.658 83.6315 112.425 83.8525C114.349 84.4049 115.605 85.6027 116.343 87.4808C117.186 89.6322 115.733 92.2953 114.047 93.0512C112.577 93.7083 111.054 93.685 109.548 93.0919C108.339 92.6151 107.043 92.3593 105.84 91.8941C104.968 91.5568 104.782 91.8301 104.712 92.5337C104.625 93.4233 104.189 94.2316 104.177 95.1328C104.177 95.4759 104.2 95.819 103.974 96.1329C103.892 96.2434 103.887 96.4586 103.933 96.6039C104.363 97.9238 103.887 99.11 103.381 100.285C103.055 101.029 102.387 101.477 101.782 101.982C101.149 102.512 100.376 102.692 99.6259 102.942C99.5619 102.965 99.4864 102.988 99.4224 102.983C98.3064 102.855 97.1787 102.779 96.2894 101.965C95.4466 101.197 94.6677 100.401 94.4003 99.2263C94.3363 98.953 94.2608 98.6972 94.2608 98.4181C94.2608 96.8947 94.0864 95.3363 94.5979 93.8827C95.0339 92.6442 94.999 91.3184 95.464 90.0974C95.7139 89.4461 95.464 89.2252 94.7897 89.0333C93.7376 88.7309 92.6274 88.667 91.6276 88.1727C91.2033 87.9634 90.686 87.946 90.2326 87.8646C89.1921 87.6785 88.1458 87.4692 87.1577 87.1552C86.1114 86.8238 85.0418 86.6493 83.9956 86.3528C83.4317 86.19 82.8505 85.9923 82.2517 85.969C81.7112 85.9458 81.252 85.6608 80.7521 85.5213C79.6128 85.2015 78.427 85.1608 77.3051 84.7014C76.4507 84.3525 75.4509 84.2479 74.5151 84.0386C73.7594 83.8699 72.9921 83.7943 72.2714 83.4455C71.847 83.242 71.3413 83.2361 70.8705 83.1257C69.6091 82.8175 68.3478 82.5326 67.0922 82.1721C66.1157 81.893 65.0636 81.765 64.0929 81.4627C62.7676 81.0499 61.4016 80.8056 60.0705 80.4161C58.9894 80.0963 57.9024 79.7706 56.7863 79.5439C55.8389 79.352 54.903 79.0264 53.9672 78.7356C53.165 78.4856 52.3396 78.2995 51.5259 78.0495C49.9797 77.5727 48.387 77.2529 46.8583 76.7296C45.4749 76.2528 44.0275 76.0202 42.6499 75.5376C41.807 75.2469 40.9875 74.8573 40.1214 74.6887C38.7496 74.4212 37.5173 73.7002 36.1106 73.549C35.3375 73.4676 34.6749 72.9908 33.9018 72.8164C33.0996 72.6361 32.3091 72.357 31.5535 72.0372C30.356 71.5371 29.0947 71.2232 27.874 70.7696C26.9382 70.4149 25.9733 70.0951 25.02 69.7753C24.3515 69.5544 23.7528 69.1706 23.0553 68.9787C22.6135 68.8566 22.5322 68.9555 22.4799 69.345C22.3403 70.3335 22.1137 71.3046 21.8811 72.2756C21.7068 73.0082 21.5498 73.7932 21.4743 74.5724C21.3754 75.5434 21.2999 76.5319 20.9976 77.4797C20.986 77.5262 20.9511 77.5727 20.9569 77.6134C21.1371 78.7821 20.6605 79.8869 20.4687 80.9917C20.2478 82.2825 20.4803 83.6199 20.0036 84.8759C19.8874 85.184 19.9571 85.5678 19.9571 85.9109C19.9571 87.7018 19.9688 89.4868 19.9455 91.2777C19.9397 91.8476 20.1083 92.0278 20.7128 92.1383C21.9683 92.3709 23.1076 92.8942 23.7586 94.1269C24.1713 94.9061 24.5085 95.6794 24.4097 96.6039C24.2411 98.2029 23.4273 99.4124 22.3113 100.5C21.5731 101.209 20.7767 101.872 19.8467 102.227C18.318 102.814 16.7078 103.012 15.15 102.25C14.4525 101.913 13.7899 101.494 13.1156 101.11C12.5169 100.773 12.2902 100.122 11.9414 99.6043C11.1742 98.4646 10.7847 97.1738 10.5406 95.7899C10.3546 94.7491 10.529 93.6908 10.2732 92.7081C10.0058 91.6673 9.90119 90.6207 10.0698 89.6206C10.3546 87.9634 10.1453 86.2888 10.3778 84.6607C10.5057 83.7653 10.3778 82.8117 10.6568 82.0034C11.0405 80.8929 10.5522 79.666 11.2381 78.6426C11.2846 78.5728 11.2846 78.4565 11.273 78.3693C11.1044 77.2704 11.4764 76.2063 11.645 75.1596C11.7787 74.3398 11.6915 73.4385 12.174 72.6303C12.4588 72.1593 12.4065 71.4616 12.4646 70.8917C12.546 70.0195 12.7494 69.1648 12.8773 68.31C12.9935 67.5658 13.1854 66.7982 13.3772 66.054C13.6446 65.0073 13.9643 63.9142 13.7783 62.792C13.755 62.6641 13.6911 62.5245 13.6097 62.4257C12.8657 61.5128 12.5169 60.4545 12.1914 59.3323C11.9705 58.5822 11.8717 57.8728 11.8717 57.1169C11.8717 55.4016 12.4471 53.8956 13.3772 52.4478C14.2491 51.093 15.5395 50.1859 16.5683 49.0055C16.9869 48.5229 17.2077 48.0287 17.2891 47.4181C17.4054 46.5576 17.6553 45.7145 17.7483 44.8655C17.8471 44.0166 18.132 43.2258 18.2889 42.4001C18.4284 41.6442 18.5795 40.8767 18.7132 40.1208C18.8585 39.3126 19.0969 38.5276 19.2596 37.731C19.4224 36.9286 19.4166 36.0913 19.7246 35.3121C19.9281 34.8004 19.9165 34.2132 19.9746 33.6898C20.085 32.777 20.4919 31.9571 20.5326 31.0209C20.5675 30.2534 20.6954 29.4394 20.9802 28.6777C21.1778 28.1427 21.2185 27.5264 21.2476 26.9914C21.2999 26.0378 21.6486 25.1714 21.7823 24.2469C21.887 23.5201 21.8986 22.7351 22.2299 22.0374C22.288 21.9153 22.3171 21.7699 22.3171 21.6362C22.3229 20.5256 22.7937 19.508 22.9332 18.4323C23.0321 17.659 23.096 16.8798 23.2878 16.1239C23.5436 15.1122 23.4738 14.0423 23.8923 13.048C24.1423 12.4549 24.0958 11.7339 24.1655 11.0885C24.2702 10.1523 24.4445 9.22197 24.584 8.29745C24.741 7.26245 24.6538 6.19837 24.8979 5.21571C25.1304 4.26792 25.1014 3.20385 25.6071 2.38981C26.1302 1.5525 26.6069 0.540759 27.7403 0.267472C27.8857 0.232584 27.9787 0.127921 28.031 -0.00581455H30.9606L30.978 5.76865e-08Z" fill="white"/>
<path d="M130.776 79.0671C130.776 77.4855 130.764 75.9097 130.776 74.3282C130.788 72.9036 130.974 71.4732 131.131 70.0719C131.386 67.8507 133.398 66.211 135.763 66.4959C137.06 66.6529 138.257 67.2867 138.867 68.4612C139.303 69.2985 139.745 70.2172 139.728 71.2464C139.699 72.9152 139.716 74.5898 139.728 76.2644C139.728 76.5086 139.594 76.8691 139.838 76.9738C140.135 77.1017 140.297 76.7296 140.483 76.5493C141.576 75.4794 142.57 74.2933 143.75 73.328C145.319 72.0488 146.738 70.5312 148.732 69.8451C149.359 69.63 149.964 69.345 150.656 69.3683C150.911 69.3741 151.167 69.3625 151.37 69.1648C151.533 69.0078 151.748 68.9729 151.958 69.0078C155.114 69.5427 157.381 71.1708 158.753 74.1421C159.537 75.84 160.043 77.6134 160.543 79.3811C160.746 80.1021 160.909 80.8929 160.938 81.6778C160.961 82.3407 161.264 82.957 161.269 83.6432C161.269 83.9979 161.618 84.1781 161.99 83.8874C162.025 83.8583 162.066 83.8292 162.095 83.8002C163.252 82.5326 164.629 81.515 165.896 80.3695C166.797 79.5555 167.716 78.724 168.727 78.0088C169.733 77.2994 170.721 76.5377 171.697 75.7702C172.627 75.0434 173.674 74.4619 174.65 73.7932C176.487 72.5373 178.533 71.6593 180.428 70.5021C180.928 70.194 181.515 70.0137 182.079 69.8218C183.846 69.2171 185.613 68.6182 187.392 68.0426C189.943 67.2227 192.495 67.496 195.053 67.4611C196.006 67.4495 196.959 67.7344 197.907 68.0135C198.895 68.3042 199.872 68.6182 200.848 68.9555C201.906 69.3218 202.778 69.9963 203.743 70.5196C204.359 70.851 204.952 71.2406 205.492 71.6767C206.103 72.1709 206.649 72.7408 207.207 73.2932C208.015 74.0898 208.899 74.8282 209.585 75.7237C210.102 76.404 210.625 77.1017 211.137 77.782C211.759 78.6077 212.41 79.4218 212.921 80.3056C213.694 81.6371 214.735 82.7652 215.548 84.0734C216.385 85.4108 217.252 86.7482 218.338 87.9111C218.629 88.2251 218.955 88.3472 219.379 88.3472C221.326 88.3472 222.774 89.295 223.523 91.0045C223.861 91.772 224.291 92.743 223.738 93.7257C223.529 94.0978 223.622 94.6095 223.401 95.0456C222.5 96.8133 221.21 98.0808 219.234 98.5693C218.862 98.6623 218.559 98.9007 218.147 98.953C217.379 99.0519 216.792 98.5693 216.095 98.4588C214.653 98.232 213.752 97.1738 212.787 96.2085C211.759 95.1794 210.892 94.0339 210.044 92.8593C208.782 91.1207 207.515 89.3938 206.353 87.5796C205.446 86.1609 204.44 84.8003 203.458 83.428C202.342 81.8697 201.092 80.3812 199.552 79.2357C197.773 77.91 195.82 76.8866 193.466 77.0552C192.914 77.0959 192.35 77.0959 191.792 77.0552C190.943 76.9854 190.147 77.1889 189.339 77.3808C188.118 77.6716 187.002 78.2588 185.822 78.66C184.212 79.2124 182.835 80.2532 181.288 80.951C180.265 81.4162 179.434 82.1837 178.492 82.7768C177.539 83.3757 176.621 84.0211 175.697 84.6549C175.202 84.9921 174.72 85.3759 174.307 85.7771C173.058 86.9808 171.511 87.8471 170.448 89.231C169.954 89.8764 169.221 90.1846 168.657 90.7137C167.64 91.6615 166.704 92.6965 165.681 93.6327C164.612 94.6095 163.42 95.4643 162.048 95.9294C161.403 96.1504 160.677 96.2783 159.996 96.3713C159.345 96.4586 158.706 95.9992 158.026 95.9062C156.532 95.6968 155.561 94.6095 154.753 93.5222C154.05 92.5744 153.428 91.4871 153.219 90.2486C153.126 89.7194 153.021 89.1612 152.725 88.6961C152.463 88.289 152.487 87.8006 152.388 87.3703C152.231 86.6842 152.056 85.9923 151.934 85.2887C151.795 84.4746 151.754 83.6315 151.417 82.8291C151.173 82.2593 151.202 81.579 151.01 80.9568C150.795 80.2591 150.481 80.1021 149.946 80.6021C148.999 81.4859 148.011 82.3407 147.197 83.335C146.075 84.7131 145.157 86.2423 144.169 87.725C143.239 89.1322 142.489 90.673 141.216 91.8418C140.146 92.8244 139.007 93.5861 137.455 93.5164C136.577 93.4757 135.665 93.6036 134.88 93.1733C134.252 92.8302 133.531 92.5163 133.13 91.8999C132.328 90.6788 131.642 89.4171 131.317 87.9343C130.712 85.1724 130.788 82.393 130.776 79.6078C130.776 79.4218 130.776 79.2357 130.776 79.0496V79.0671Z" fill="white"/>
<path d="M109.537 57.396C108.043 57.6984 106.956 56.8378 106.276 55.8086C105.654 54.8667 105.061 53.6863 105.613 52.378C105.764 52.0175 105.747 51.5407 105.677 51.1395C105.439 49.7324 106.142 48.7613 107.066 47.8484C108.031 46.9007 109.252 46.4646 110.501 46.575C111.943 46.703 113.373 47.1158 114.39 48.3369C114.855 48.8951 115.617 49.2498 115.756 50.0347C115.884 50.7732 116.395 51.4535 116.25 52.2036C116.116 52.8839 115.872 53.5991 115.483 54.1631C114.355 55.797 112.78 56.8669 110.856 57.3728C110.443 57.4832 109.978 57.3902 109.548 57.3902L109.537 57.396Z" fill="white"/>
</g>
<defs>
<clipPath id="clip0_42_60">
<rect width="214" height="103" fill="white" transform="translate(10)"/>
</clipPath>
</defs>
</svg>
